<?xml version="1.0" encoding="UTF-8"?> <!-- Generator: Adobe Illustrator 23.1.1, SVG Export Plug-In . SVG Version: 6.00 Build 0) --> <svg xmlns="http://www.w3.org/2000/svg" xmlns:xlink="http://www.w3.org/1999/xlink" x="0px" y="0px" viewBox="0 0 824.7 125" style="enable-background:new 0 0 824.7 125;" xml:space="preserve"> <style type="text/css"> .st0{display:none;} .st1{fill:#FFFFFF;} </style> <g id="brandmark"> </g> <g id="guides" class="st0"> </g> <g id="SN"> <g> <polygon class="st1" points="13.8,18 13.8,112.4 26.7,112.4 26.7,18 13.8,18 "></polygon> <polygon class="st1" points="76.8,16.8 67.7,25.9 107,65.2 67.7,104.5 76.8,113.6 125.3,65.2 "></polygon> <polygon class="st1" points="71,64.6 51.2,16.8 39.3,21.7 57.3,65.4 39.3,108.7 51.2,113.6 71.3,65.2 71,64.6 "></polygon> <g> <path class="st1" d="M190.6,38.3l-10.4,9.2c-3.7-5.1-7.4-7.6-11.2-7.6c-1.8,0-3.4,0.5-4.5,1.5c-1.2,1-1.8,2.1-1.8,3.3 c0,1.2,0.4,2.4,1.3,3.5c1.1,1.5,4.6,4.6,10.3,9.5c5.4,4.5,8.6,7.3,9.8,8.5c2.8,2.9,4.9,5.6,6.1,8.3c1.2,2.6,1.8,5.5,1.8,8.6 c0,6.1-2.1,11.1-6.3,15c-4.2,3.9-9.6,5.9-16.4,5.9c-5.3,0-9.8-1.3-13.7-3.9c-3.9-2.6-7.2-6.6-10-12.1l11.8-7.1 c3.6,6.5,7.6,9.8,12.3,9.8c2.4,0,4.4-0.7,6.1-2.1c1.6-1.4,2.5-3,2.5-4.9c0-1.7-0.6-3.3-1.9-5c-1.2-1.7-4-4.2-8.2-7.7 c-8-6.6-13.2-11.6-15.6-15.2c-2.3-3.6-3.5-7.1-3.5-10.7c0-5.1,2-9.5,5.9-13.2c3.9-3.7,8.7-5.5,14.4-5.5c3.7,0,7.2,0.9,10.5,2.6 C183.1,30.6,186.7,33.8,190.6,38.3z"></path> <path class="st1" d="M201.2,28.2h40.3V42h-26.3v13.3h26.3v13.5h-26.3v19.4h26.3v13.8h-40.3V28.2z"></path> </g> <g> <path class="st1" d="M252.6,28.2h13.5l31.6,48.6V28.2h14.1v73.8h-13.5l-31.5-48.4v48.4h-14.1V28.2z"></path> <path class="st1" d="M324.5,28.2h16.6c10.7,0,18.7,1.3,23.9,4c5.2,2.7,9.5,7,12.9,13c3.4,6,5.1,13,5.1,21 c0,5.7-0.9,10.9-2.8,15.7c-1.9,4.8-4.5,8.7-7.8,11.9c-3.3,3.1-6.9,5.3-10.8,6.5c-3.9,1.2-10.6,1.8-20.2,1.8h-16.9V28.2z M338.5,41.8v46.6h6.5c6.4,0,11.1-0.7,14-2.2c2.9-1.5,5.3-4,7.1-7.4c1.8-3.5,2.8-7.8,2.8-12.9c0-7.8-2.2-13.9-6.6-18.2 c-3.9-3.9-10.3-5.8-19-5.8H338.5z"></path> </g> <path class="st1" d="M415.3,28h13.5l31.7,48.8V28h14.1v74.1h-13.6l-31.7-48.6v48.6h-14.1V28z"></path> <path class="st1" d="M538.7,78.6h-44.2c0.6,3.9,2.3,7,5.1,9.3c2.8,2.3,6.3,3.5,10.6,3.5c5.1,0,9.6-1.8,13.2-5.4l11.6,5.4 c-2.9,4.1-6.3,7.1-10.4,9.1c-4,2-8.8,2.9-14.4,2.9c-8.6,0-15.6-2.7-21-8.1c-5.4-5.4-8.1-12.2-8.1-20.4c0-8.4,2.7-15.3,8.1-20.8 c5.4-5.5,12.1-8.3,20.3-8.3c8.6,0,15.6,2.8,21.1,8.3c5.4,5.5,8.1,12.8,8.1,21.9L538.7,78.6z M525,67.8c-0.9-3.1-2.7-5.5-5.4-7.5 c-2.7-1.9-5.8-2.9-9.3-2.9c-3.8,0-7.2,1.1-10.1,3.2c-1.8,1.3-3.5,3.7-5,7.1H525z"></path> <path class="st1" d="M549.5,27.1h13.7v20.2h8.2v11.8h-8.2v43h-13.7v-43h-7.1V47.3h7.1V27.1z"></path> <path class="st1" d="M576.8,47.3h13.5l11,31.2l11.9-31.2h8.2L633,78.1l11-30.8h13.5l-20,54.8h-8.7l-11.7-31.2l-12,31.2h-8.6 L576.8,47.3z"></path> <path class="st1" d="M684.9,45.8c5.2,0,10,1.3,14.6,3.9c4.6,2.6,8.1,6.1,10.7,10.5s3.8,9.2,3.8,14.4c0,5.2-1.3,10-3.9,14.5 s-6.1,8-10.5,10.6c-4.4,2.5-9.3,3.8-14.7,3.8c-7.9,0-14.6-2.8-20.1-8.4c-5.6-5.6-8.3-12.4-8.3-20.4c0-8.6,3.1-15.7,9.4-21.4 C671.4,48.3,677.8,45.8,684.9,45.8z M685.2,58.8c-4.3,0-7.8,1.5-10.7,4.5c-2.8,3-4.3,6.8-4.3,11.4c0,4.8,1.4,8.6,4.2,11.6 c2.8,3,6.4,4.4,10.7,4.4c4.3,0,7.9-1.5,10.7-4.5c2.9-3,4.3-6.8,4.3-11.5c0-4.7-1.4-8.5-4.2-11.5C693.1,60.3,689.5,58.8,685.2,58.8 z"></path> <path class="st1" d="M722,47.3h11.8v6.9c1.3-2.7,3-4.8,5.1-6.2c2.1-1.4,4.4-2.1,7-2.1c1.8,0,3.6,0.5,5.6,1.4l-4.3,11.8 c-1.6-0.8-2.9-1.2-4-1.2c-2.1,0-3.9,1.3-5.4,3.9c-1.5,2.6-2.2,7.8-2.2,15.4l0,2.7v22.2H722V47.3z"></path> <path class="st1" d="M756.2,26.1H770v43.8l20.2-22.6h17.3l-23.6,26.3l26.4,28.5h-17.1L770,76.8v25.3h-13.8V26.1z"></path> </g> </g> </svg> 